# xmcd
#
# Track frame offsets:
#	150
#	12089
#	27001
#	37611
#	50318
#	62227
#	76146
#	87049
#	99138
#	114758
#	130473
#	144335
#	158469
#	170870
#	183506
#
# Disc length: 2623 seconds
#
# Revision: 1
# Processed by: cddbd v1.5.2PL0 Copyright (c) Steve Scherf et al.
# Submitted via: audiograbber 1.83.01
#
DISCID=a50a3d0f
DTITLE=Various Artist - Lifetime Of Country Romance - I Can't Stop Lovin' You - Disc 1
DYEAR=2006
DGENRE=Country
TTITLE0=Johnny Cash - Ring Of Fire
TTITLE1=Bellamy Brothers - Let Your Love Flow
TTITLE2=Jim Reeves - He'll Have To Go
TTITLE3=Lynn Anderson - Rose Garden
TTITLE4=Tammy Wynette - He Loves Me All The Way
TTITLE5=George Jones - Loving You Could Never Be Better
TTITLE6=The Everly Brothers - Devoted To You
TTITLE7=Ray Price - Release Me
TTITLE8=Dolly Parton w Ricky Van Shelton - Rockin' Years
TTITLE9=Ronnie Milsap - Only One Love In My Life
TTITLE10=Glen Campbell - Wichita Lineman
TTITLE11=Elvis Presley - Are You Lonesone Tonight
TTITLE12=Charlie Rich - A Very Special Love Song
TTITLE13=Norma Jean - Let's Go All The Way
TTITLE14=Waylon Jennings - Amanda
EXTD=
EXTT0=
EXTT1=
EXTT2=
EXTT3=
EXTT4=
EXTT5=
EXTT6=
EXTT7=
EXTT8=
EXTT9=
EXTT10=
EXTT11=
EXTT12=
EXTT13=
EXTT14=
PLAYORDER=
